%TF.GenerationSoftware,KiCad,Pcbnew,7.0.7*%
%TF.CreationDate,2023-09-10T14:40:22-07:00*%
%TF.ProjectId,cat-project,6361742d-7072-46f6-9a65-63742e6b6963,rev?*%
%TF.SameCoordinates,Original*%
%TF.FileFunction,Legend,Top*%
%TF.FilePolarity,Positive*%
%FSLAX46Y46*%
G04 Gerber Fmt 4.6, Leading zero omitted, Abs format (unit mm)*
G04 Created by KiCad (PCBNEW 7.0.7) date 2023-09-10 14:40:22*
%MOMM*%
%LPD*%
G01*
G04 APERTURE LIST*
%ADD10C,0.150000*%
%ADD11C,0.120000*%
G04 APERTURE END LIST*
D10*
X185756779Y-40509819D02*
X185756779Y-39509819D01*
X185756779Y-39986009D02*
X186328207Y-39986009D01*
X186328207Y-40509819D02*
X186328207Y-39509819D01*
X186947255Y-40509819D02*
X186852017Y-40462200D01*
X186852017Y-40462200D02*
X186804398Y-40414580D01*
X186804398Y-40414580D02*
X186756779Y-40319342D01*
X186756779Y-40319342D02*
X186756779Y-40033628D01*
X186756779Y-40033628D02*
X186804398Y-39938390D01*
X186804398Y-39938390D02*
X186852017Y-39890771D01*
X186852017Y-39890771D02*
X186947255Y-39843152D01*
X186947255Y-39843152D02*
X187090112Y-39843152D01*
X187090112Y-39843152D02*
X187185350Y-39890771D01*
X187185350Y-39890771D02*
X187232969Y-39938390D01*
X187232969Y-39938390D02*
X187280588Y-40033628D01*
X187280588Y-40033628D02*
X187280588Y-40319342D01*
X187280588Y-40319342D02*
X187232969Y-40414580D01*
X187232969Y-40414580D02*
X187185350Y-40462200D01*
X187185350Y-40462200D02*
X187090112Y-40509819D01*
X187090112Y-40509819D02*
X186947255Y-40509819D01*
X187709160Y-39843152D02*
X187709160Y-40509819D01*
X187709160Y-39938390D02*
X187756779Y-39890771D01*
X187756779Y-39890771D02*
X187852017Y-39843152D01*
X187852017Y-39843152D02*
X187994874Y-39843152D01*
X187994874Y-39843152D02*
X188090112Y-39890771D01*
X188090112Y-39890771D02*
X188137731Y-39986009D01*
X188137731Y-39986009D02*
X188137731Y-40509819D01*
X189042493Y-39843152D02*
X189042493Y-40652676D01*
X189042493Y-40652676D02*
X188994874Y-40747914D01*
X188994874Y-40747914D02*
X188947255Y-40795533D01*
X188947255Y-40795533D02*
X188852017Y-40843152D01*
X188852017Y-40843152D02*
X188709160Y-40843152D01*
X188709160Y-40843152D02*
X188613922Y-40795533D01*
X189042493Y-40462200D02*
X188947255Y-40509819D01*
X188947255Y-40509819D02*
X188756779Y-40509819D01*
X188756779Y-40509819D02*
X188661541Y-40462200D01*
X188661541Y-40462200D02*
X188613922Y-40414580D01*
X188613922Y-40414580D02*
X188566303Y-40319342D01*
X188566303Y-40319342D02*
X188566303Y-40033628D01*
X188566303Y-40033628D02*
X188613922Y-39938390D01*
X188613922Y-39938390D02*
X188661541Y-39890771D01*
X188661541Y-39890771D02*
X188756779Y-39843152D01*
X188756779Y-39843152D02*
X188947255Y-39843152D01*
X188947255Y-39843152D02*
X189042493Y-39890771D01*
X183216779Y-37969819D02*
X183216779Y-36969819D01*
X183216779Y-36969819D02*
X183550112Y-37684104D01*
X183550112Y-37684104D02*
X183883445Y-36969819D01*
X183883445Y-36969819D02*
X183883445Y-37969819D01*
X184788207Y-37969819D02*
X184788207Y-37446009D01*
X184788207Y-37446009D02*
X184740588Y-37350771D01*
X184740588Y-37350771D02*
X184645350Y-37303152D01*
X184645350Y-37303152D02*
X184454874Y-37303152D01*
X184454874Y-37303152D02*
X184359636Y-37350771D01*
X184788207Y-37922200D02*
X184692969Y-37969819D01*
X184692969Y-37969819D02*
X184454874Y-37969819D01*
X184454874Y-37969819D02*
X184359636Y-37922200D01*
X184359636Y-37922200D02*
X184312017Y-37826961D01*
X184312017Y-37826961D02*
X184312017Y-37731723D01*
X184312017Y-37731723D02*
X184359636Y-37636485D01*
X184359636Y-37636485D02*
X184454874Y-37588866D01*
X184454874Y-37588866D02*
X184692969Y-37588866D01*
X184692969Y-37588866D02*
X184788207Y-37541247D01*
X185692969Y-37969819D02*
X185692969Y-36969819D01*
X185692969Y-37922200D02*
X185597731Y-37969819D01*
X185597731Y-37969819D02*
X185407255Y-37969819D01*
X185407255Y-37969819D02*
X185312017Y-37922200D01*
X185312017Y-37922200D02*
X185264398Y-37874580D01*
X185264398Y-37874580D02*
X185216779Y-37779342D01*
X185216779Y-37779342D02*
X185216779Y-37493628D01*
X185216779Y-37493628D02*
X185264398Y-37398390D01*
X185264398Y-37398390D02*
X185312017Y-37350771D01*
X185312017Y-37350771D02*
X185407255Y-37303152D01*
X185407255Y-37303152D02*
X185597731Y-37303152D01*
X185597731Y-37303152D02*
X185692969Y-37350771D01*
X186550112Y-37922200D02*
X186454874Y-37969819D01*
X186454874Y-37969819D02*
X186264398Y-37969819D01*
X186264398Y-37969819D02*
X186169160Y-37922200D01*
X186169160Y-37922200D02*
X186121541Y-37826961D01*
X186121541Y-37826961D02*
X186121541Y-37446009D01*
X186121541Y-37446009D02*
X186169160Y-37350771D01*
X186169160Y-37350771D02*
X186264398Y-37303152D01*
X186264398Y-37303152D02*
X186454874Y-37303152D01*
X186454874Y-37303152D02*
X186550112Y-37350771D01*
X186550112Y-37350771D02*
X186597731Y-37446009D01*
X186597731Y-37446009D02*
X186597731Y-37541247D01*
X186597731Y-37541247D02*
X186121541Y-37636485D01*
X187788208Y-37969819D02*
X187788208Y-36969819D01*
X187788208Y-37350771D02*
X187883446Y-37303152D01*
X187883446Y-37303152D02*
X188073922Y-37303152D01*
X188073922Y-37303152D02*
X188169160Y-37350771D01*
X188169160Y-37350771D02*
X188216779Y-37398390D01*
X188216779Y-37398390D02*
X188264398Y-37493628D01*
X188264398Y-37493628D02*
X188264398Y-37779342D01*
X188264398Y-37779342D02*
X188216779Y-37874580D01*
X188216779Y-37874580D02*
X188169160Y-37922200D01*
X188169160Y-37922200D02*
X188073922Y-37969819D01*
X188073922Y-37969819D02*
X187883446Y-37969819D01*
X187883446Y-37969819D02*
X187788208Y-37922200D01*
X188597732Y-37303152D02*
X188835827Y-37969819D01*
X189073922Y-37303152D02*
X188835827Y-37969819D01*
X188835827Y-37969819D02*
X188740589Y-38207914D01*
X188740589Y-38207914D02*
X188692970Y-38255533D01*
X188692970Y-38255533D02*
X188597732Y-38303152D01*
X190216780Y-37969819D02*
X190216780Y-37303152D01*
X190216780Y-37398390D02*
X190264399Y-37350771D01*
X190264399Y-37350771D02*
X190359637Y-37303152D01*
X190359637Y-37303152D02*
X190502494Y-37303152D01*
X190502494Y-37303152D02*
X190597732Y-37350771D01*
X190597732Y-37350771D02*
X190645351Y-37446009D01*
X190645351Y-37446009D02*
X190645351Y-37969819D01*
X190645351Y-37446009D02*
X190692970Y-37350771D01*
X190692970Y-37350771D02*
X190788208Y-37303152D01*
X190788208Y-37303152D02*
X190931065Y-37303152D01*
X190931065Y-37303152D02*
X191026304Y-37350771D01*
X191026304Y-37350771D02*
X191073923Y-37446009D01*
X191073923Y-37446009D02*
X191073923Y-37969819D01*
X191931065Y-37922200D02*
X191835827Y-37969819D01*
X191835827Y-37969819D02*
X191645351Y-37969819D01*
X191645351Y-37969819D02*
X191550113Y-37922200D01*
X191550113Y-37922200D02*
X191502494Y-37826961D01*
X191502494Y-37826961D02*
X191502494Y-37446009D01*
X191502494Y-37446009D02*
X191550113Y-37350771D01*
X191550113Y-37350771D02*
X191645351Y-37303152D01*
X191645351Y-37303152D02*
X191835827Y-37303152D01*
X191835827Y-37303152D02*
X191931065Y-37350771D01*
X191931065Y-37350771D02*
X191978684Y-37446009D01*
X191978684Y-37446009D02*
X191978684Y-37541247D01*
X191978684Y-37541247D02*
X191502494Y-37636485D01*
X192454875Y-37922200D02*
X192454875Y-37969819D01*
X192454875Y-37969819D02*
X192407256Y-38065057D01*
X192407256Y-38065057D02*
X192359637Y-38112676D01*
X200493333Y-81904819D02*
X200160000Y-81428628D01*
X199921905Y-81904819D02*
X199921905Y-80904819D01*
X199921905Y-80904819D02*
X200302857Y-80904819D01*
X200302857Y-80904819D02*
X200398095Y-80952438D01*
X200398095Y-80952438D02*
X200445714Y-81000057D01*
X200445714Y-81000057D02*
X200493333Y-81095295D01*
X200493333Y-81095295D02*
X200493333Y-81238152D01*
X200493333Y-81238152D02*
X200445714Y-81333390D01*
X200445714Y-81333390D02*
X200398095Y-81381009D01*
X200398095Y-81381009D02*
X200302857Y-81428628D01*
X200302857Y-81428628D02*
X199921905Y-81428628D01*
X201445714Y-81904819D02*
X200874286Y-81904819D01*
X201160000Y-81904819D02*
X201160000Y-80904819D01*
X201160000Y-80904819D02*
X201064762Y-81047676D01*
X201064762Y-81047676D02*
X200969524Y-81142914D01*
X200969524Y-81142914D02*
X200874286Y-81190533D01*
X196111905Y-63534819D02*
X196111905Y-62534819D01*
X196111905Y-62534819D02*
X196350000Y-62534819D01*
X196350000Y-62534819D02*
X196492857Y-62582438D01*
X196492857Y-62582438D02*
X196588095Y-62677676D01*
X196588095Y-62677676D02*
X196635714Y-62772914D01*
X196635714Y-62772914D02*
X196683333Y-62963390D01*
X196683333Y-62963390D02*
X196683333Y-63106247D01*
X196683333Y-63106247D02*
X196635714Y-63296723D01*
X196635714Y-63296723D02*
X196588095Y-63391961D01*
X196588095Y-63391961D02*
X196492857Y-63487200D01*
X196492857Y-63487200D02*
X196350000Y-63534819D01*
X196350000Y-63534819D02*
X196111905Y-63534819D01*
X197635714Y-63534819D02*
X197064286Y-63534819D01*
X197350000Y-63534819D02*
X197350000Y-62534819D01*
X197350000Y-62534819D02*
X197254762Y-62677676D01*
X197254762Y-62677676D02*
X197159524Y-62772914D01*
X197159524Y-62772914D02*
X197064286Y-62820533D01*
X171396667Y-81117200D02*
X171539524Y-81164819D01*
X171539524Y-81164819D02*
X171777619Y-81164819D01*
X171777619Y-81164819D02*
X171872857Y-81117200D01*
X171872857Y-81117200D02*
X171920476Y-81069580D01*
X171920476Y-81069580D02*
X171968095Y-80974342D01*
X171968095Y-80974342D02*
X171968095Y-80879104D01*
X171968095Y-80879104D02*
X171920476Y-80783866D01*
X171920476Y-80783866D02*
X171872857Y-80736247D01*
X171872857Y-80736247D02*
X171777619Y-80688628D01*
X171777619Y-80688628D02*
X171587143Y-80641009D01*
X171587143Y-80641009D02*
X171491905Y-80593390D01*
X171491905Y-80593390D02*
X171444286Y-80545771D01*
X171444286Y-80545771D02*
X171396667Y-80450533D01*
X171396667Y-80450533D02*
X171396667Y-80355295D01*
X171396667Y-80355295D02*
X171444286Y-80260057D01*
X171444286Y-80260057D02*
X171491905Y-80212438D01*
X171491905Y-80212438D02*
X171587143Y-80164819D01*
X171587143Y-80164819D02*
X171825238Y-80164819D01*
X171825238Y-80164819D02*
X171968095Y-80212438D01*
X172301429Y-80164819D02*
X172539524Y-81164819D01*
X172539524Y-81164819D02*
X172730000Y-80450533D01*
X172730000Y-80450533D02*
X172920476Y-81164819D01*
X172920476Y-81164819D02*
X173158572Y-80164819D01*
X174063333Y-81164819D02*
X173491905Y-81164819D01*
X173777619Y-81164819D02*
X173777619Y-80164819D01*
X173777619Y-80164819D02*
X173682381Y-80307676D01*
X173682381Y-80307676D02*
X173587143Y-80402914D01*
X173587143Y-80402914D02*
X173491905Y-80450533D01*
X178331905Y-63534819D02*
X178331905Y-62534819D01*
X178331905Y-62534819D02*
X178570000Y-62534819D01*
X178570000Y-62534819D02*
X178712857Y-62582438D01*
X178712857Y-62582438D02*
X178808095Y-62677676D01*
X178808095Y-62677676D02*
X178855714Y-62772914D01*
X178855714Y-62772914D02*
X178903333Y-62963390D01*
X178903333Y-62963390D02*
X178903333Y-63106247D01*
X178903333Y-63106247D02*
X178855714Y-63296723D01*
X178855714Y-63296723D02*
X178808095Y-63391961D01*
X178808095Y-63391961D02*
X178712857Y-63487200D01*
X178712857Y-63487200D02*
X178570000Y-63534819D01*
X178570000Y-63534819D02*
X178331905Y-63534819D01*
X179284286Y-62630057D02*
X179331905Y-62582438D01*
X179331905Y-62582438D02*
X179427143Y-62534819D01*
X179427143Y-62534819D02*
X179665238Y-62534819D01*
X179665238Y-62534819D02*
X179760476Y-62582438D01*
X179760476Y-62582438D02*
X179808095Y-62630057D01*
X179808095Y-62630057D02*
X179855714Y-62725295D01*
X179855714Y-62725295D02*
X179855714Y-62820533D01*
X179855714Y-62820533D02*
X179808095Y-62963390D01*
X179808095Y-62963390D02*
X179236667Y-63534819D01*
X179236667Y-63534819D02*
X179855714Y-63534819D01*
%TO.C,G\u002A\u002A\u002A*%
G36*
X175562421Y-49236087D02*
G01*
X175880028Y-49310701D01*
X176228598Y-49434920D01*
X176609827Y-49609598D01*
X177025412Y-49835589D01*
X177477048Y-50113744D01*
X177966434Y-50444917D01*
X178494906Y-50829692D01*
X178806854Y-51069776D01*
X179131322Y-51330317D01*
X179461928Y-51605443D01*
X179792291Y-51889281D01*
X180116027Y-52175958D01*
X180426756Y-52459600D01*
X180718095Y-52734334D01*
X180983661Y-52994288D01*
X181217074Y-53233588D01*
X181411951Y-53446361D01*
X181561910Y-53626733D01*
X181619698Y-53705310D01*
X181696952Y-53829662D01*
X181735989Y-53932254D01*
X181746926Y-54039815D01*
X181746927Y-54041526D01*
X181740723Y-54136298D01*
X181713367Y-54207501D01*
X181651739Y-54281235D01*
X181602768Y-54328332D01*
X181502925Y-54408003D01*
X181414100Y-54455264D01*
X181377729Y-54462803D01*
X181322307Y-54452961D01*
X181252281Y-54420708D01*
X181162568Y-54361955D01*
X181048086Y-54272611D01*
X180903752Y-54148589D01*
X180724483Y-53985798D01*
X180505196Y-53780148D01*
X180373805Y-53655048D01*
X179952771Y-53255600D01*
X179570237Y-52899629D01*
X179218079Y-52580477D01*
X178888174Y-52291488D01*
X178572397Y-52026003D01*
X178262624Y-51777367D01*
X177950731Y-51538921D01*
X177628594Y-51304008D01*
X177288089Y-51065972D01*
X176921092Y-50818154D01*
X176872183Y-50785648D01*
X176504653Y-50550071D01*
X176183005Y-50361922D01*
X175904783Y-50220144D01*
X175667529Y-50123682D01*
X175468788Y-50071481D01*
X175306101Y-50062485D01*
X175223976Y-50077625D01*
X175090708Y-50135081D01*
X174964465Y-50228413D01*
X174841141Y-50363236D01*
X174716630Y-50545163D01*
X174586827Y-50779811D01*
X174447626Y-51072793D01*
X174375173Y-51238343D01*
X174089691Y-51970916D01*
X173838610Y-52751369D01*
X173625566Y-53566418D01*
X173454194Y-54402782D01*
X173375572Y-54890701D01*
X173341042Y-55118443D01*
X173310537Y-55288816D01*
X173280589Y-55412503D01*
X173247731Y-55500188D01*
X173208495Y-55562553D01*
X173159413Y-55610282D01*
X173136381Y-55627573D01*
X173024465Y-55676356D01*
X172886432Y-55694996D01*
X172750366Y-55683105D01*
X172644356Y-55640294D01*
X172636716Y-55634481D01*
X172572170Y-55570852D01*
X172528769Y-55494213D01*
X172502736Y-55390331D01*
X172490291Y-55244975D01*
X172487578Y-55072668D01*
X172501296Y-54798369D01*
X172540360Y-54471077D01*
X172602372Y-54100390D01*
X172684934Y-53695905D01*
X172785647Y-53267219D01*
X172902114Y-52823930D01*
X173031936Y-52375634D01*
X173172715Y-51931931D01*
X173322052Y-51502415D01*
X173477551Y-51096686D01*
X173486802Y-51073854D01*
X173657050Y-50674668D01*
X173819407Y-50336970D01*
X173978011Y-50054847D01*
X174136998Y-49822388D01*
X174300506Y-49633681D01*
X174472669Y-49482815D01*
X174657627Y-49363878D01*
X174698331Y-49342481D01*
X174829886Y-49277926D01*
X174930209Y-49238393D01*
X175025203Y-49217932D01*
X175140771Y-49210594D01*
X175274079Y-49210227D01*
X175562421Y-49236087D01*
G37*
G36*
X200402786Y-49219641D02*
G01*
X200675132Y-49332490D01*
X200934478Y-49504529D01*
X201175693Y-49732682D01*
X201393646Y-50013872D01*
X201493602Y-50175678D01*
X201643100Y-50462843D01*
X201797989Y-50807437D01*
X201955081Y-51198967D01*
X202111188Y-51626936D01*
X202263122Y-52080852D01*
X202407694Y-52550219D01*
X202541717Y-53024543D01*
X202662000Y-53493330D01*
X202765357Y-53946085D01*
X202848599Y-54372314D01*
X202908537Y-54761522D01*
X202922555Y-54879093D01*
X202942499Y-55112886D01*
X202943219Y-55291866D01*
X202922957Y-55427420D01*
X202879957Y-55530934D01*
X202812461Y-55613794D01*
X202808622Y-55617404D01*
X202702507Y-55678882D01*
X202563509Y-55711488D01*
X202423718Y-55707933D01*
X202416459Y-55706505D01*
X202317822Y-55656608D01*
X202220275Y-55559076D01*
X202138519Y-55433371D01*
X202087253Y-55298956D01*
X202080220Y-55261358D01*
X202064622Y-55156653D01*
X202039757Y-55000918D01*
X202008393Y-54810522D01*
X201973300Y-54601834D01*
X201937245Y-54391221D01*
X201902996Y-54195053D01*
X201873322Y-54029697D01*
X201858339Y-53949326D01*
X201751880Y-53459906D01*
X201615265Y-52940546D01*
X201454645Y-52410105D01*
X201276172Y-51887445D01*
X201085998Y-51391424D01*
X200890274Y-50940904D01*
X200847842Y-50851347D01*
X200715734Y-50596661D01*
X200585686Y-50392537D01*
X200452156Y-50238445D01*
X200309603Y-50133851D01*
X200152483Y-50078226D01*
X199975255Y-50071036D01*
X199772378Y-50111750D01*
X199538309Y-50199836D01*
X199267506Y-50334763D01*
X198954427Y-50515997D01*
X198740263Y-50649101D01*
X198298613Y-50939821D01*
X197830312Y-51267827D01*
X197354051Y-51619109D01*
X196888524Y-51979658D01*
X196452423Y-52335466D01*
X196192749Y-52558302D01*
X196019082Y-52712982D01*
X195826968Y-52888418D01*
X195610435Y-53090223D01*
X195363512Y-53324007D01*
X195080226Y-53595384D01*
X194763709Y-53901141D01*
X194614458Y-54043053D01*
X194474271Y-54171349D01*
X194353561Y-54276877D01*
X194262739Y-54350483D01*
X194218987Y-54380033D01*
X194077939Y-54418522D01*
X193920970Y-54408306D01*
X193777123Y-54352307D01*
X193748139Y-54332651D01*
X193695564Y-54283310D01*
X193669127Y-54222364D01*
X193660551Y-54125837D01*
X193660241Y-54078023D01*
X193666625Y-53964120D01*
X193691250Y-53870104D01*
X193743705Y-53768178D01*
X193794521Y-53688647D01*
X193854649Y-53610779D01*
X193955465Y-53494394D01*
X194088320Y-53348438D01*
X194244563Y-53181860D01*
X194415545Y-53003607D01*
X194592615Y-52822628D01*
X194767123Y-52647871D01*
X194930420Y-52488282D01*
X195073856Y-52352810D01*
X195165795Y-52270152D01*
X195510428Y-51972263D01*
X195815114Y-51713141D01*
X196089800Y-51484672D01*
X196344436Y-51278746D01*
X196588971Y-51087250D01*
X196833352Y-50902072D01*
X196945849Y-50818697D01*
X197151711Y-50667477D01*
X197317559Y-50546865D01*
X197458214Y-50446477D01*
X197588497Y-50355933D01*
X197723232Y-50264849D01*
X197877240Y-50162843D01*
X197955687Y-50111327D01*
X198355761Y-49858803D01*
X198730716Y-49641747D01*
X199075507Y-49462642D01*
X199385087Y-49323972D01*
X199654413Y-49228221D01*
X199839618Y-49183826D01*
X200122571Y-49169061D01*
X200402786Y-49219641D01*
G37*
G36*
X196674990Y-64102161D02*
G01*
X196855491Y-64114299D01*
X197012019Y-64140484D01*
X197165599Y-64185530D01*
X197337259Y-64254249D01*
X197544906Y-64349968D01*
X197758548Y-64475679D01*
X197973255Y-64644341D01*
X198172523Y-64839771D01*
X198339848Y-65045789D01*
X198458545Y-65245822D01*
X198582672Y-65581841D01*
X198653759Y-65932935D01*
X198670790Y-66284744D01*
X198632750Y-66622905D01*
X198571687Y-66847033D01*
X198421508Y-67177790D01*
X198218742Y-67473763D01*
X197971135Y-67730565D01*
X197686431Y-67943805D01*
X197372375Y-68109096D01*
X197036711Y-68222049D01*
X196687184Y-68278274D01*
X196331540Y-68273383D01*
X196115828Y-68238718D01*
X195832982Y-68149487D01*
X195544624Y-68009701D01*
X195272116Y-67831773D01*
X195036820Y-67628115D01*
X195001504Y-67591231D01*
X194788513Y-67312711D01*
X194627836Y-66997262D01*
X194522213Y-66655173D01*
X194474383Y-66296733D01*
X194487084Y-65932232D01*
X194514623Y-65762336D01*
X194623336Y-65384321D01*
X194785583Y-65044223D01*
X194998216Y-64746066D01*
X195258089Y-64493869D01*
X195562057Y-64291656D01*
X195728052Y-64211214D01*
X195836284Y-64165938D01*
X195925231Y-64134891D01*
X196012203Y-64115386D01*
X196114507Y-64104738D01*
X196249453Y-64100261D01*
X196434350Y-64099268D01*
X196449488Y-64099260D01*
X196674990Y-64102161D01*
G37*
G36*
X179427636Y-64143010D02*
G01*
X179787919Y-64223757D01*
X180107138Y-64358766D01*
X180386085Y-64548386D01*
X180625551Y-64792969D01*
X180664931Y-64843398D01*
X180870854Y-65169866D01*
X181012803Y-65514598D01*
X181090809Y-65871558D01*
X181104904Y-66234710D01*
X181055119Y-66598020D01*
X180941488Y-66955451D01*
X180764041Y-67300968D01*
X180651109Y-67467763D01*
X180425248Y-67718843D01*
X180152679Y-67929363D01*
X179844582Y-68095319D01*
X179512137Y-68212708D01*
X179166524Y-68277524D01*
X178818922Y-68285765D01*
X178499868Y-68238230D01*
X178215430Y-68138570D01*
X177933075Y-67982966D01*
X177667614Y-67782741D01*
X177433861Y-67549220D01*
X177246627Y-67293727D01*
X177231840Y-67268797D01*
X177087221Y-66988991D01*
X176991898Y-66723589D01*
X176939077Y-66447741D01*
X176921959Y-66136599D01*
X176921955Y-66135849D01*
X176935605Y-65819036D01*
X176982453Y-65547918D01*
X177066843Y-65306104D01*
X177193122Y-65077202D01*
X177208861Y-65053438D01*
X177445164Y-64751313D01*
X177708502Y-64510145D01*
X178002554Y-64328038D01*
X178331000Y-64203092D01*
X178697520Y-64133408D01*
X179025499Y-64116172D01*
X179427636Y-64143010D01*
G37*
G36*
X203685755Y-68171616D02*
G01*
X204108251Y-68214093D01*
X204473691Y-68283645D01*
X204780280Y-68379873D01*
X205026222Y-68502379D01*
X205139796Y-68584830D01*
X205226829Y-68672640D01*
X205250758Y-68735772D01*
X205212476Y-68773874D01*
X205112873Y-68786594D01*
X204952842Y-68773581D01*
X204750701Y-68738106D01*
X204454342Y-68677348D01*
X204215065Y-68629164D01*
X204022944Y-68592087D01*
X203868052Y-68564653D01*
X203740464Y-68545394D01*
X203630252Y-68532845D01*
X203527491Y-68525540D01*
X203422254Y-68522012D01*
X203304614Y-68520795D01*
X203278733Y-68520700D01*
X202887071Y-68542339D01*
X202525407Y-68612597D01*
X202182777Y-68735654D01*
X201848216Y-68915695D01*
X201510757Y-69156900D01*
X201423304Y-69228379D01*
X201246631Y-69374444D01*
X201113407Y-69479398D01*
X201016065Y-69547786D01*
X200947038Y-69584156D01*
X200898758Y-69593053D01*
X200863660Y-69579024D01*
X200853980Y-69570440D01*
X200837400Y-69522681D01*
X200831159Y-69448516D01*
X200858769Y-69364708D01*
X200935644Y-69252531D01*
X201052859Y-69119682D01*
X201201483Y-68973856D01*
X201372590Y-68822750D01*
X201557250Y-68674059D01*
X201746536Y-68535480D01*
X201931519Y-68414708D01*
X202103272Y-68319440D01*
X202183316Y-68282979D01*
X202345148Y-68229338D01*
X202538378Y-68191389D01*
X202773500Y-68167837D01*
X203061009Y-68157388D01*
X203207999Y-68156610D01*
X203685755Y-68171616D01*
G37*
G36*
X172479046Y-68124612D02*
G01*
X172787486Y-68152280D01*
X173000701Y-68191377D01*
X173400463Y-68318862D01*
X173776124Y-68505426D01*
X174132352Y-68753886D01*
X174473815Y-69067057D01*
X174503324Y-69097820D01*
X174616287Y-69219574D01*
X174688113Y-69306432D01*
X174726919Y-69371047D01*
X174740820Y-69426078D01*
X174739969Y-69466824D01*
X174711990Y-69555939D01*
X174651678Y-69584759D01*
X174559761Y-69552945D01*
X174558248Y-69552064D01*
X174506832Y-69515449D01*
X174415686Y-69444263D01*
X174297164Y-69348370D01*
X174163621Y-69237636D01*
X174147466Y-69224066D01*
X173798538Y-68961274D01*
X173449703Y-68762861D01*
X173091808Y-68625366D01*
X172715694Y-68545331D01*
X172312205Y-68519298D01*
X172281833Y-68519416D01*
X172162298Y-68521145D01*
X172054464Y-68525233D01*
X171948356Y-68533180D01*
X171833997Y-68546484D01*
X171701413Y-68566646D01*
X171540628Y-68595165D01*
X171341666Y-68633541D01*
X171094552Y-68683273D01*
X170826981Y-68738106D01*
X170634433Y-68774842D01*
X170498453Y-68791574D01*
X170409569Y-68786356D01*
X170358309Y-68757242D01*
X170335203Y-68702288D01*
X170330620Y-68636139D01*
X170338135Y-68545571D01*
X170356794Y-68488105D01*
X170362857Y-68481961D01*
X170411693Y-68463986D01*
X170514387Y-68434008D01*
X170658055Y-68395287D01*
X170829816Y-68351086D01*
X171016786Y-68304664D01*
X171206082Y-68259283D01*
X171384822Y-68218205D01*
X171523944Y-68188039D01*
X171823245Y-68142437D01*
X172149622Y-68121313D01*
X172479046Y-68124612D01*
G37*
G36*
X188156855Y-66654735D02*
G01*
X188549047Y-66744491D01*
X188923231Y-66886496D01*
X189162806Y-67013263D01*
X189352351Y-67149252D01*
X189514104Y-67308933D01*
X189638740Y-67479817D01*
X189716933Y-67649416D01*
X189739926Y-67786170D01*
X189711075Y-67926392D01*
X189623837Y-68075219D01*
X189476721Y-68233938D01*
X189268235Y-68403833D01*
X188996888Y-68586191D01*
X188661189Y-68782295D01*
X188456361Y-68892404D01*
X188310512Y-68969542D01*
X188187140Y-69036055D01*
X188098746Y-69085113D01*
X188057831Y-69109889D01*
X188057132Y-69110479D01*
X188049743Y-69155542D01*
X188058369Y-69249456D01*
X188079680Y-69375396D01*
X188110349Y-69516537D01*
X188147046Y-69656055D01*
X188186444Y-69777126D01*
X188191797Y-69791163D01*
X188345824Y-70098266D01*
X188549728Y-70367543D01*
X188795610Y-70593431D01*
X189075571Y-70770369D01*
X189381711Y-70892796D01*
X189706132Y-70955150D01*
X189854924Y-70962127D01*
X190198278Y-70930021D01*
X190523619Y-70834804D01*
X190822529Y-70679942D01*
X191086593Y-70468902D01*
X191110723Y-70444877D01*
X191346825Y-70161791D01*
X191519207Y-69855382D01*
X191629902Y-69521395D01*
X191671458Y-69271895D01*
X191712240Y-69069634D01*
X191784779Y-68926001D01*
X191886810Y-68843078D01*
X192013694Y-68807017D01*
X192127932Y-68827365D01*
X192244814Y-68907870D01*
X192277235Y-68938830D01*
X192345487Y-69015159D01*
X192388505Y-69090697D01*
X192407599Y-69179182D01*
X192404080Y-69294357D01*
X192379258Y-69449960D01*
X192342539Y-69623599D01*
X192217660Y-70042686D01*
X192040331Y-70421479D01*
X191813699Y-70756831D01*
X191540914Y-71045592D01*
X191225123Y-71284612D01*
X190869475Y-71470742D01*
X190477119Y-71600832D01*
X190334741Y-71631963D01*
X189919910Y-71678322D01*
X189515801Y-71657928D01*
X189125863Y-71572106D01*
X188753543Y-71422180D01*
X188402289Y-71209472D01*
X188075549Y-70935307D01*
X187833258Y-70671563D01*
X187692484Y-70500404D01*
X187613571Y-70603099D01*
X187470956Y-70768186D01*
X187293046Y-70943285D01*
X187096361Y-71114549D01*
X186897420Y-71268129D01*
X186712741Y-71390178D01*
X186607844Y-71446195D01*
X186457959Y-71509049D01*
X186292916Y-71568071D01*
X186197062Y-71597007D01*
X186008444Y-71633543D01*
X185778975Y-71656794D01*
X185533753Y-71666018D01*
X185297875Y-71660478D01*
X185096437Y-71639433D01*
X185050297Y-71630803D01*
X184668201Y-71519161D01*
X184312574Y-71354857D01*
X183989084Y-71143938D01*
X183703400Y-70892451D01*
X183461187Y-70606443D01*
X183268115Y-70291961D01*
X183129851Y-69955051D01*
X183052062Y-69601762D01*
X183040918Y-69486990D01*
X183032821Y-69261635D01*
X183044282Y-69091430D01*
X183077214Y-68965368D01*
X183133531Y-68872449D01*
X183151144Y-68853453D01*
X183259174Y-68784405D01*
X183375357Y-68782935D01*
X183488817Y-68843184D01*
X183566115Y-68918165D01*
X183627320Y-69014663D01*
X183678126Y-69145884D01*
X183724226Y-69325036D01*
X183749430Y-69447711D01*
X183839123Y-69790871D01*
X183966646Y-70081814D01*
X184135581Y-70327607D01*
X184263182Y-70460879D01*
X184528785Y-70662645D01*
X184821747Y-70807579D01*
X185133296Y-70896730D01*
X185454661Y-70931146D01*
X185777069Y-70911875D01*
X186091751Y-70839964D01*
X186389933Y-70716462D01*
X186662844Y-70542416D01*
X186901714Y-70318874D01*
X187047430Y-70128269D01*
X187175741Y-69888889D01*
X187268190Y-69624614D01*
X187315339Y-69363906D01*
X187318675Y-69310373D01*
X187326712Y-69099235D01*
X186879589Y-68858445D01*
X186702423Y-68761205D01*
X186529602Y-68663120D01*
X186378444Y-68574230D01*
X186266266Y-68504574D01*
X186246300Y-68491314D01*
X186056566Y-68349599D01*
X185892247Y-68201727D01*
X185761578Y-68057032D01*
X185672790Y-67924847D01*
X185634116Y-67814506D01*
X185633117Y-67796091D01*
X185664397Y-67654265D01*
X185750611Y-67494951D01*
X185883865Y-67327866D01*
X186056269Y-67162731D01*
X186259930Y-67009266D01*
X186285772Y-66992305D01*
X186613719Y-66819694D01*
X186975087Y-66699707D01*
X187359590Y-66632268D01*
X187756941Y-66617303D01*
X188156855Y-66654735D01*
G37*
G36*
X202769805Y-70135944D02*
G01*
X203140415Y-70227493D01*
X203521355Y-70374402D01*
X203918378Y-70578008D01*
X204337236Y-70839649D01*
X204690264Y-71090423D01*
X204912284Y-71262524D01*
X205076037Y-71405649D01*
X205184023Y-71522351D01*
X205238744Y-71615185D01*
X205247062Y-71658959D01*
X205218450Y-71700311D01*
X205143141Y-71714765D01*
X205036931Y-71703393D01*
X204915614Y-71667267D01*
X204836280Y-71631093D01*
X204729397Y-71569645D01*
X204595559Y-71485832D01*
X204463228Y-71397495D01*
X204459731Y-71395067D01*
X204218165Y-71228453D01*
X204020675Y-71095906D01*
X203856173Y-70990937D01*
X203713576Y-70907060D01*
X203581797Y-70837787D01*
X203449751Y-70776629D01*
X203306352Y-70717101D01*
X203290545Y-70710823D01*
X202879108Y-70584495D01*
X202450560Y-70523380D01*
X202268342Y-70517520D01*
X202042738Y-70524295D01*
X201839928Y-70547681D01*
X201634855Y-70592274D01*
X201402463Y-70662668D01*
X201316235Y-70692089D01*
X201120519Y-70754749D01*
X200978446Y-70785348D01*
X200882628Y-70782847D01*
X200825675Y-70746211D01*
X200800199Y-70674400D01*
X200796927Y-70619158D01*
X200829491Y-70545546D01*
X200922530Y-70464928D01*
X201069062Y-70382007D01*
X201262108Y-70301486D01*
X201275640Y-70296611D01*
X201662443Y-70180089D01*
X202036571Y-70113580D01*
X202403774Y-70098419D01*
X202769805Y-70135944D01*
G37*
G36*
X173755635Y-70171591D02*
G01*
X174110136Y-70231929D01*
X174428662Y-70327808D01*
X174552119Y-70380550D01*
X174702367Y-70470531D01*
X174785075Y-70565583D01*
X174799907Y-70665237D01*
X174786345Y-70707197D01*
X174731449Y-70768818D01*
X174637544Y-70790598D01*
X174499364Y-70772490D01*
X174311643Y-70714447D01*
X174279911Y-70702679D01*
X173891122Y-70584174D01*
X173511394Y-70528222D01*
X173125528Y-70533357D01*
X172874154Y-70566994D01*
X172666631Y-70606268D01*
X172496714Y-70646709D01*
X172340506Y-70695948D01*
X172174112Y-70761615D01*
X171973636Y-70851340D01*
X171951481Y-70861610D01*
X171725301Y-70971551D01*
X171534304Y-71077461D01*
X171355468Y-71193887D01*
X171165769Y-71335371D01*
X171032342Y-71442268D01*
X170841184Y-71593130D01*
X170692097Y-71697908D01*
X170579028Y-71759217D01*
X170495929Y-71779672D01*
X170436749Y-71761890D01*
X170399249Y-71715942D01*
X170388694Y-71626721D01*
X170434467Y-71514998D01*
X170530121Y-71385589D01*
X170669207Y-71243308D01*
X170845275Y-71092972D01*
X171051878Y-70939394D01*
X171282565Y-70787390D01*
X171530889Y-70641776D01*
X171790401Y-70507366D01*
X172054652Y-70388976D01*
X172298949Y-70297489D01*
X172636815Y-70209744D01*
X173002921Y-70159907D01*
X173381212Y-70147387D01*
X173755635Y-70171591D01*
G37*
D11*
%TO.C,R1*%
X196620000Y-83820000D02*
X197390000Y-83820000D01*
X197390000Y-82450000D02*
X197390000Y-85190000D01*
X197390000Y-85190000D02*
X203930000Y-85190000D01*
X203930000Y-82450000D02*
X197390000Y-82450000D01*
X203930000Y-85190000D02*
X203930000Y-82450000D01*
X204700000Y-83820000D02*
X203930000Y-83820000D01*
%TO.C,D1*%
X195290000Y-64804000D02*
X195290000Y-64960000D01*
X195290000Y-67120000D02*
X195290000Y-67276000D01*
X198522334Y-64961392D02*
G75*
G03*
X195290001Y-64804485I-1672334J-1078608D01*
G01*
X197891129Y-64960164D02*
G75*
G03*
X195809040Y-64960001I-1041129J-1079836D01*
G01*
X195809040Y-67119999D02*
G75*
G03*
X197891129Y-67119836I1040960J1079999D01*
G01*
X195290001Y-67275515D02*
G75*
G03*
X198522334Y-67118608I1559999J1235515D01*
G01*
%TO.C,SW1*%
X176141000Y-84810000D02*
X176141000Y-85930000D01*
X176141000Y-81710000D02*
X176141000Y-82830000D01*
X174540000Y-84455000D02*
X174540000Y-83185000D01*
X174540000Y-83185000D02*
X170920000Y-83185000D01*
X172126667Y-83185000D02*
X172126667Y-84455000D01*
X170920000Y-84455000D02*
X174540000Y-84455000D01*
X170920000Y-84385000D02*
X172126667Y-84385000D01*
X170920000Y-84265000D02*
X172126667Y-84265000D01*
X170920000Y-84145000D02*
X172126667Y-84145000D01*
X170920000Y-84025000D02*
X172126667Y-84025000D01*
X170920000Y-83905000D02*
X172126667Y-83905000D01*
X170920000Y-83785000D02*
X172126667Y-83785000D01*
X170920000Y-83665000D02*
X172126667Y-83665000D01*
X170920000Y-83545000D02*
X172126667Y-83545000D01*
X170920000Y-83425000D02*
X172126667Y-83425000D01*
X170920000Y-83305000D02*
X172126667Y-83305000D01*
X170920000Y-83185000D02*
X170920000Y-84455000D01*
X169320000Y-85930000D02*
X176141000Y-85930000D01*
X169320000Y-84860000D02*
X169320000Y-85930000D01*
X169320000Y-81710000D02*
X176141000Y-81710000D01*
X169320000Y-81710000D02*
X169320000Y-82780000D01*
X169080000Y-81470000D02*
X170463000Y-81470000D01*
X169080000Y-81470000D02*
X169080000Y-82780000D01*
%TO.C,D2*%
X177510000Y-64804000D02*
X177510000Y-64960000D01*
X177510000Y-67120000D02*
X177510000Y-67276000D01*
X180742334Y-64961392D02*
G75*
G03*
X177510001Y-64804485I-1672334J-1078608D01*
G01*
X180111129Y-64960164D02*
G75*
G03*
X178029040Y-64960001I-1041129J-1079836D01*
G01*
X178029040Y-67119999D02*
G75*
G03*
X180111129Y-67119836I1040960J1079999D01*
G01*
X177510001Y-67275515D02*
G75*
G03*
X180742334Y-67118608I1559999J1235515D01*
G01*
%TD*%
M02*
